<?xml version="1.0" encoding="utf-8"?>
<!-- Generator: Adobe Illustrator 19.0.0, SVG Export Plug-In . SVG Version: 6.00 Build 0)  -->
<svg version="1.1" id="Layer_1" xmlns="http://www.w3.org/2000/svg" xmlns:xlink="http://www.w3.org/1999/xlink" x="0px" y="0px"
	 viewBox="0 0 1193.5 524.1" style="enable-background:new 0 0 1193.5 524.1;" xml:space="preserve">
<style type="text/css">
	.st0{fill:#36BDE6;}
</style>
<g id="XMLID_40_">
	<g id="XMLID_44_">
		<path id="XMLID_47_" class="st0" d="M273.6,285.2c-0.2,0.2-0.5,0.5-0.7,0.7c-2.2,2.2-4.4,4.4-6.7,6.7l-32.2,32.2
			c-6.7,6.7-13.5,13.5-20.2,20.2c-5.3,5.3-13.6,4.9-19,0c-5.3-4.9-5-14,0-19l44.3-44.3c3.3-3.3,3.3-8.7,0-12
			c-8-8-16.1-16.1-24.1-24.1c-6.7-6.7-13.5-13.5-20.2-20.2c-5.3-5.3-4.9-13.6,0-19c4.9-5.3,14-5,19,0c2.5,2.5,4.9,4.9,7.4,7.4
			l32.2,32.2c6.7,6.7,13.5,13.5,20.2,20.2C278.9,271.5,278.6,279.9,273.6,285.2z"/>
		<path id="XMLID_46_" class="st0" d="M273.6,285.2c-0.2,0.2-0.5,0.5-0.7,0.7C273.2,285.7,273.4,285.5,273.6,285.2z"/>
	</g>
	<g id="XMLID_42_">
		<path id="XMLID_43_" class="st0" d="M222.1,198.1c6.7,6.7,13.5,13.5,20.2,20.2c10.7,10.7,21.5,21.5,32.2,32.2
			c2.5,2.5,4.9,4.9,7.4,7.4c5,5,14.1,5.3,19,0c4.9-5.4,5.3-13.7,0-19c-6.7-6.7-13.5-13.5-20.2-20.2c-10.7-10.7-21.5-21.5-32.2-32.2
			c-2.5-2.5-4.9-4.9-7.4-7.4c-5-5-14.1-5.3-19,0C217.2,184.4,216.8,192.8,222.1,198.1L222.1,198.1z"/>
	</g>
	<g id="XMLID_41_">
		<path id="XMLID_45_" class="st0" d="M273.6,285.2c4.9-5.4,5.3-13.7,0-19C279,271.1,278.6,280.3,273.6,285.2z"/>
	</g>
</g>
<g id="XMLID_14_">
	<g id="XMLID_13_">
		<path id="XMLID_26_" class="st0" d="M877.4,197.9c-30.6,0-55.4,24.8-55.4,55.4c0,30.6,24.8,55.4,55.4,55.4
			c30.6,0,55.4-24.8,55.4-55.4C932.8,222.7,908,197.9,877.4,197.9z M872.9,242.1l5.4-1.2c0.3-0.1,0.6-0.3,0.8-0.6l2.5-5
			c0.4-0.8,1.5-0.8,2-0.1l2.8,4.8c0.2,0.3,0.5,0.5,0.8,0.5l5.5,0.8c0.9,0.1,1.2,1.2,0.7,1.8l-3.7,4.2c-0.2,0.3-0.3,0.6-0.3,0.9
			l0.9,5.5c0.2,0.9-0.7,1.5-1.5,1.2l-5.1-2.2c-0.3-0.1-0.7-0.1-1,0l-4.9,2.6c-0.8,0.4-1.7-0.2-1.6-1.1l0.5-5.5
			c0-0.3-0.1-0.7-0.3-0.9l-4-3.9C871.7,243.4,872,242.3,872.9,242.1z M900.5,284.3c-6.8,4.9-15.3,7.5-24.5,6.8
			c-18.4-1.5-33.2-16.9-34.6-35.9c-0.8-10.1,2.2-19.4,7.5-26.7c0.9-1.3,3-0.3,2.5,1.3c-1,3.7-1.6,7.5-1.6,11.5
			c0,22.7,17.8,41.1,39.7,41.1c3.3,0,6.5-0.4,9.6-1.2C901,280.6,902.1,283.1,900.5,284.3z"/>
		<g id="XMLID_1_">
			<path id="XMLID_11_" class="st0" d="M335.7,287.5l11.9-11.6c1.8-1.7,4.6-1.7,6.3,0c4.9,4.7,12,7.5,19.6,7.5
				c6.3,0,12.4-2.3,12.4-6.8c0-5.7-11.3-10.7-22.2-15.5c-14-6-26-15.3-26-32c0-19.2,18.2-32.8,39.2-32.8c15.2,0,27.4,6.4,32.9,15.7
				c1,1.8,0.7,4.1-0.8,5.5l-11.2,10.8c-1.7,1.6-4.3,1.6-6.1,0c-4-3.6-10.3-5.2-14.4-5.2c-6,0-10.4,3.1-10.4,6.9
				c0,5.1,7.8,6.7,19.8,11.8c17.3,7.3,28.8,17.9,28.8,34.2c0,21.1-19.7,34.2-41.8,34.2c-16.6,0-31.7-6.6-38.6-17
				C333.9,291.4,334.2,289,335.7,287.5z"/>
			<path id="XMLID_8_" class="st0" d="M491.4,295.8H456c-1.8,0-3.4,1.1-4.1,2.7l-3.3,7.5c-0.7,1.6-2.3,2.7-4.1,2.7h-22.1
				c-3.3,0-5.5-3.4-4.1-6.4l47.3-103.1c0.7-1.6,2.3-2.6,4.1-2.6h8.1c1.8,0,3.4,1,4.1,2.6l47.4,103.1c1.4,3-0.8,6.4-4.1,6.4H503
				c-1.8,0-3.4-1.1-4.2-2.7l-3.2-7.5C494.9,296.9,493.2,295.8,491.4,295.8z M482.3,268l-4.5-10.3c-1.6-3.6-6.7-3.6-8.3,0l-4.5,10.3
				c-1.3,3,0.9,6.3,4.1,6.3h9C481.4,274.3,483.6,271,482.3,268z"/>
			<path id="XMLID_6_" class="st0" d="M615.1,285.6v18.6c0,2.5-2,4.5-4.5,4.5h-62.8c-2.5,0-4.5-2-4.5-4.5V202.5c0-2.5,2-4.5,4.5-4.5
				h20.4c2.5,0,4.5,2,4.5,4.5v74.1c0,2.5,2,4.5,4.5,4.5h33.4C613.1,281.1,615.1,283.1,615.1,285.6z"/>
			<path id="XMLID_3_" class="st0" d="M695.6,295.8h-35.4c-1.8,0-3.4,1.1-4.1,2.7l-3.3,7.5c-0.7,1.6-2.3,2.7-4.1,2.7h-22.1
				c-3.3,0-5.5-3.4-4.1-6.4l47.3-103.1c0.7-1.6,2.3-2.6,4.1-2.6h8.1c1.8,0,3.4,1,4.1,2.6l47.4,103.1c1.4,3-0.8,6.4-4.1,6.4h-22.2
				c-1.8,0-3.4-1.1-4.2-2.7l-3.2-7.5C699,296.9,697.4,295.8,695.6,295.8z M686.5,268l-4.5-10.3c-1.6-3.6-6.7-3.6-8.3,0l-4.5,10.3
				c-1.3,3,0.9,6.3,4.1,6.3h9C685.6,274.3,687.8,271,686.5,268z"/>
			<path id="XMLID_2_" class="st0" d="M805,225.4h-17.5c-2.5,0-4.5,2-4.5,4.5v74.2c0,2.5-2,4.5-4.5,4.5h-20.4c-2.5,0-4.5-2-4.5-4.5
				v-74.2c0-2.5-2-4.5-4.5-4.5h-17.5c-2.5,0-4.5-2-4.5-4.5v-18.4c0-2.5,2-4.5,4.5-4.5H805c2.5,0,4.5,2,4.5,4.5v18.4
				C809.5,223.4,807.5,225.4,805,225.4z"/>
			<path id="XMLID_54_" class="st0" d="M1003.8,306.7L985.4,279c-2.5-3.7-8.3-2-8.3,2.5v22.6c0,2.5-2,4.5-4.5,4.5h-20.3
				c-2.5,0-4.5-2-4.5-4.5V202.5c0-2.5,2-4.5,4.5-4.5h20.3c2.5,0,4.5,2,4.5,4.5v20.9c0,4.5,6,6.3,8.4,2.4l16-25.7
				c0.8-1.3,2.3-2.1,3.8-2.1h23.1c3.6,0,5.7,3.9,3.8,6.9l-28,44.6c-1,1.5-0.9,3.4,0.1,4.9l31.8,47.3c2,3-0.1,7-3.8,7h-24.8
				C1006.1,308.7,1004.7,308,1003.8,306.7z"/>
		</g>
	</g>
	<g id="XMLID_17_">
		<line id="XMLID_15_" class="st0" x1="334.3" y1="327.8" x2="1036.9" y2="327.8"/>
		<path id="XMLID_16_" class="st0" d="M1036.9,335.8H334.3c-4.4,0-8-3.6-8-8s3.6-8,8-8h702.5c4.4,0,8,3.6,8,8
			S1041.3,335.8,1036.9,335.8z"/>
	</g>
</g>
</svg>
