<?xml version="1.0" standalone="no"?>
<!DOCTYPE svg PUBLIC "-//W3C//DTD SVG 20010904//EN"
 "http://www.w3.org/TR/2001/REC-SVG-20010904/DTD/svg10.dtd">
<svg version="1.0" xmlns="http://www.w3.org/2000/svg"
 width="700.000000pt" height="700.000000pt" viewBox="0 0 700.000000 700.000000"
 preserveAspectRatio="xMidYMid meet">
<metadata>
Created by potrace 1.14, written by Peter Selinger 2001-2017
</metadata>
<g transform="translate(0.000000,700.000000) scale(0.100000,-0.100000)"
fill="#000000" stroke="none">
<path d="M3191 5918 c-77 -12 -134 -40 -185 -93 -113 -115 -139 -284 -67 -424
16 -30 284 -305 845 -866 641 -641 833 -828 873 -849 98 -49 216 -53 314 -9
170 75 249 292 171 466 -27 60 -85 120 -855 889 -638 639 -836 831 -873 849
-67 32 -157 47 -223 37z"/>
<path d="M2447 5193 c-31 -7 -71 -20 -89 -29 -42 -22 -107 -91 -137 -145 -30
-55 -49 -160 -40 -221 18 -117 11 -110 740 -839 374 -374 679 -682 677 -685
-2 -2 -307 -308 -679 -681 -468 -469 -684 -692 -699 -722 -71 -141 -48 -312
53 -412 120 -117 310 -140 447 -54 52 33 1658 1643 1686 1690 56 96 64 234 20
332 -20 43 -159 186 -855 882 -486 486 -847 839 -868 850 -82 41 -172 53 -256
34z"/>
</g>
</svg>
