<?xml version="1.0" encoding="utf-8"?>
<!-- Generator: Adobe Illustrator 19.0.0, SVG Export Plug-In . SVG Version: 6.00 Build 0)  -->
<svg version="1.1" id="Layer_1" xmlns="http://www.w3.org/2000/svg" xmlns:xlink="http://www.w3.org/1999/xlink" x="0px" y="0px"
	 viewBox="0 0 885.9 190.1" style="enable-background:new 0 0 885.9 190.1;" xml:space="preserve">
<style type="text/css">
	.st0{fill:url(#XMLID_59_);}
	.st1{fill:url(#XMLID_60_);}
	.st2{fill:url(#XMLID_61_);}
	.st3{fill:url(#XMLID_62_);}
	.st4{fill:url(#XMLID_63_);}
	.st5{fill:url(#XMLID_64_);}
	.st6{fill:url(#XMLID_65_);}
	.st7{fill:url(#XMLID_66_);}
	.st8{fill:url(#XMLID_67_);}
	.st9{fill:url(#XMLID_68_);}
	.st10{fill:url(#XMLID_69_);}
	.st11{fill:none;stroke:#38BEE6;stroke-width:16;stroke-linecap:round;stroke-miterlimit:10;}
</style>
<g id="XMLID_40_">
	<g id="XMLID_44_">
		<linearGradient id="XMLID_59_" gradientUnits="userSpaceOnUse" x1="25.5171" y1="108.7257" x2="112.047" y2="108.7257">
			<stop  offset="0" style="stop-color:#4AC0E7"/>
			<stop  offset="1" style="stop-color:#009ECC"/>
		</linearGradient>
		<path id="XMLID_47_" class="st0" d="M108.2,118.2c-0.2,0.2-0.5,0.5-0.7,0.7c-2.2,2.2-4.4,4.4-6.7,6.7l-32.2,32.2
			c-6.7,6.7-13.5,13.5-20.2,20.2c-5.3,5.3-13.6,4.9-19,0c-5.3-4.9-5-14,0-19l44.3-44.3c3.3-3.3,3.3-8.7,0-12
			c-8-8-16.1-16.1-24.1-24.1c-6.7-6.7-13.5-13.5-20.2-20.2c-5.3-5.3-4.9-13.6,0-19c4.9-5.3,14-5,19,0c2.5,2.5,4.9,4.9,7.4,7.4L88,79
			c6.7,6.7,13.5,13.5,20.2,20.2C113.5,104.5,113.1,112.9,108.2,118.2z"/>
		<linearGradient id="XMLID_60_" gradientUnits="userSpaceOnUse" x1="107.5045" y1="118.5895" x2="108.2061" y2="118.5895">
			<stop  offset="0" style="stop-color:#4AC0E7"/>
			<stop  offset="1" style="stop-color:#009ECC"/>
		</linearGradient>
		<path id="XMLID_46_" class="st1" d="M108.2,118.2c-0.2,0.2-0.5,0.5-0.7,0.7C107.7,118.7,108,118.5,108.2,118.2z"/>
	</g>
	<g id="XMLID_42_">
		<linearGradient id="XMLID_61_" gradientUnits="userSpaceOnUse" x1="52.8685" y1="51.5009" x2="139.3731" y2="51.5009">
			<stop  offset="0" style="stop-color:#4AC0E7"/>
			<stop  offset="1" style="stop-color:#009ECC"/>
		</linearGradient>
		<path id="XMLID_43_" class="st2" d="M56.7,31.1c6.7,6.7,13.5,13.5,20.2,20.2c10.7,10.7,21.5,21.5,32.2,32.2
			c2.5,2.5,4.9,4.9,7.4,7.4c5,5,14.1,5.3,19,0c4.9-5.4,5.3-13.7,0-19c-6.7-6.7-13.5-13.5-20.2-20.2c-10.7-10.7-21.5-21.5-32.2-32.2
			c-2.5-2.5-4.9-4.9-7.4-7.4c-5-5-14.1-5.3-19,0C51.8,17.5,51.4,25.8,56.7,31.1L56.7,31.1z"/>
	</g>
	<g id="XMLID_41_">
		<linearGradient id="XMLID_62_" gradientUnits="userSpaceOnUse" x1="108.2061" y1="108.7383" x2="112.0721" y2="108.7383">
			<stop  offset="0" style="stop-color:#4AC0E7"/>
			<stop  offset="1" style="stop-color:#009ECC"/>
		</linearGradient>
		<path id="XMLID_45_" class="st3" d="M108.2,118.2c4.9-5.4,5.3-13.7,0-19C113.5,104.1,113.2,113.3,108.2,118.2z"/>
	</g>
</g>
<g id="XMLID_1_">
	<g id="XMLID_2_">
		<linearGradient id="XMLID_63_" gradientUnits="userSpaceOnUse" x1="-126.6201" y1="-116.3904" x2="1034.996" y2="164.4177">
			<stop  offset="0" style="stop-color:#009ECC"/>
			<stop  offset="1" style="stop-color:#7ECDEA"/>
		</linearGradient>
		<path id="XMLID_26_" class="st4" d="M712,30.9c-30.6,0-55.4,24.8-55.4,55.4c0,30.6,24.8,55.4,55.4,55.4
			c30.6,0,55.4-24.8,55.4-55.4C767.4,55.7,742.6,30.9,712,30.9z M707.4,75.1l5.4-1.2c0.3-0.1,0.6-0.3,0.8-0.6l2.5-5
			c0.4-0.8,1.5-0.8,2-0.1l2.8,4.8c0.2,0.3,0.5,0.5,0.8,0.5l5.5,0.8c0.9,0.1,1.2,1.2,0.7,1.8l-3.7,4.2c-0.2,0.3-0.3,0.6-0.3,0.9
			l0.9,5.5c0.2,0.9-0.7,1.5-1.5,1.2l-5.1-2.2c-0.3-0.1-0.7-0.1-1,0l-4.9,2.6c-0.8,0.4-1.7-0.2-1.6-1.1l0.5-5.5
			c0-0.3-0.1-0.7-0.3-0.9l-4-3.9C706.3,76.4,706.6,75.3,707.4,75.1z M735.1,117.3c-6.8,4.9-15.3,7.5-24.5,6.8
			c-18.4-1.5-33.2-16.9-34.6-35.9c-0.8-10.1,2.2-19.4,7.5-26.7c0.9-1.3,3-0.3,2.5,1.3c-1,3.7-1.6,7.5-1.6,11.5
			c0,22.7,17.8,41.1,39.7,41.1c3.3,0,6.5-0.4,9.6-1.2C735.6,113.6,736.7,116.1,735.1,117.3z"/>
		<g id="XMLID_3_">
			<linearGradient id="XMLID_64_" gradientUnits="userSpaceOnUse" x1="-154.3637" y1="-1.6238" x2="1007.2524" y2="279.1843">
				<stop  offset="0" style="stop-color:#009ECC"/>
				<stop  offset="1" style="stop-color:#7ECDEA"/>
			</linearGradient>
			<path id="XMLID_11_" class="st5" d="M170.3,120.6l11.9-11.6c1.8-1.7,4.6-1.7,6.3,0c4.9,4.7,12,7.5,19.6,7.5
				c6.3,0,12.4-2.3,12.4-6.8c0-5.7-11.3-10.7-22.2-15.5c-14-6-26-15.3-26-32c0-19.2,18.2-32.8,39.2-32.8c15.2,0,27.4,6.4,32.9,15.7
				c1,1.8,0.7,4.1-0.8,5.5l-11.2,10.8c-1.7,1.6-4.3,1.6-6.1,0c-4-3.6-10.3-5.2-14.4-5.2c-6,0-10.4,3.1-10.4,6.9
				c0,5.1,7.8,6.7,19.8,11.8C238.5,82.1,250,92.7,250,109c0,21.1-19.7,34.2-41.8,34.2c-16.6,0-31.7-6.6-38.6-17
				C168.5,124.4,168.8,122,170.3,120.6z"/>
			<linearGradient id="XMLID_65_" gradientUnits="userSpaceOnUse" x1="-150.0611" y1="-19.4223" x2="1011.5551" y2="261.3858">
				<stop  offset="0" style="stop-color:#009ECC"/>
				<stop  offset="1" style="stop-color:#7ECDEA"/>
			</linearGradient>
			<path id="XMLID_8_" class="st6" d="M326,128.8h-35.4c-1.8,0-3.4,1.1-4.1,2.7l-3.3,7.5c-0.7,1.6-2.3,2.7-4.1,2.7h-22.1
				c-3.3,0-5.5-3.4-4.1-6.4l47.3-103.1c0.7-1.6,2.3-2.6,4.1-2.6h8.1c1.8,0,3.4,1,4.1,2.6l47.4,103.1c1.4,3-0.8,6.4-4.1,6.4h-22.2
				c-1.8,0-3.4-1.1-4.2-2.7l-3.2-7.5C329.4,129.9,327.8,128.8,326,128.8z M316.9,101l-4.5-10.3c-1.6-3.6-6.7-3.6-8.3,0l-4.5,10.3
				c-1.3,3,0.9,6.3,4.1,6.3h9C316,107.3,318.2,104,316.9,101z"/>
			<linearGradient id="XMLID_66_" gradientUnits="userSpaceOnUse" x1="-144.2582" y1="-43.4271" x2="1017.3579" y2="237.381">
				<stop  offset="0" style="stop-color:#009ECC"/>
				<stop  offset="1" style="stop-color:#7ECDEA"/>
			</linearGradient>
			<path id="XMLID_6_" class="st7" d="M449.6,118.6v18.6c0,2.5-2,4.5-4.5,4.5h-62.8c-2.5,0-4.5-2-4.5-4.5V35.5c0-2.5,2-4.5,4.5-4.5
				h20.4c2.5,0,4.5,2,4.5,4.5v74.1c0,2.5,2,4.5,4.5,4.5h33.4C447.6,114.1,449.6,116.1,449.6,118.6z"/>
			<linearGradient id="XMLID_67_" gradientUnits="userSpaceOnUse" x1="-138.7893" y1="-66.0503" x2="1022.8268" y2="214.7578">
				<stop  offset="0" style="stop-color:#009ECC"/>
				<stop  offset="1" style="stop-color:#7ECDEA"/>
			</linearGradient>
			<path id="XMLID_4_" class="st8" d="M530.2,128.8h-35.4c-1.8,0-3.4,1.1-4.1,2.7l-3.3,7.5c-0.7,1.6-2.3,2.7-4.1,2.7H461
				c-3.3,0-5.5-3.4-4.1-6.4l47.3-103.1c0.7-1.6,2.3-2.6,4.1-2.6h8.1c1.8,0,3.4,1,4.1,2.6L568,135.3c1.4,3-0.8,6.4-4.1,6.4h-22.2
				c-1.8,0-3.4-1.1-4.2-2.7l-3.2-7.5C533.6,129.9,532,128.8,530.2,128.8z M521.1,101l-4.5-10.3c-1.6-3.6-6.7-3.6-8.3,0l-4.5,10.3
				c-1.3,3,0.9,6.3,4.1,6.3h9C520.2,107.3,522.3,104,521.1,101z"/>
			<linearGradient id="XMLID_68_" gradientUnits="userSpaceOnUse" x1="-131.9146" y1="-94.4889" x2="1029.7015" y2="186.3191">
				<stop  offset="0" style="stop-color:#009ECC"/>
				<stop  offset="1" style="stop-color:#7ECDEA"/>
			</linearGradient>
			<path id="XMLID_14_" class="st9" d="M639.6,58.4h-17.5c-2.5,0-4.5,2-4.5,4.5v74.2c0,2.5-2,4.5-4.5,4.5h-20.4
				c-2.5,0-4.5-2-4.5-4.5V63c0-2.5-2-4.5-4.5-4.5H566c-2.5,0-4.5-2-4.5-4.5V35.5c0-2.5,2-4.5,4.5-4.5h73.6c2.5,0,4.5,2,4.5,4.5v18.4
				C644.1,56.4,642.1,58.4,639.6,58.4z"/>
			<linearGradient id="XMLID_69_" gradientUnits="userSpaceOnUse" x1="-120.3829" y1="-142.1918" x2="1041.2333" y2="138.6163">
				<stop  offset="0" style="stop-color:#009ECC"/>
				<stop  offset="1" style="stop-color:#7ECDEA"/>
			</linearGradient>
			<path id="XMLID_54_" class="st10" d="M838.4,139.7L820,112.1c-2.5-3.7-8.3-2-8.3,2.5v22.6c0,2.5-2,4.5-4.5,4.5h-20.3
				c-2.5,0-4.5-2-4.5-4.5V35.5c0-2.5,2-4.5,4.5-4.5h20.3c2.5,0,4.5,2,4.5,4.5v20.9c0,4.5,6,6.3,8.4,2.4l16-25.7
				c0.8-1.3,2.3-2.1,3.8-2.1H863c3.6,0,5.7,3.9,3.8,6.9l-28,44.6c-1,1.5-0.9,3.4,0.1,4.9l31.8,47.3c2,3-0.1,7-3.8,7h-24.8
				C840.7,141.7,839.2,141,838.4,139.7z"/>
		</g>
	</g>
	<line id="XMLID_15_" class="st11" x1="168.9" y1="160.8" x2="871.5" y2="160.8"/>
</g>
</svg>
