<?xml version="1.0" encoding="utf-8"?>
<!-- Generator: Adobe Illustrator 19.0.0, SVG Export Plug-In . SVG Version: 6.00 Build 0)  -->
<svg version="1.1" id="Layer_1" xmlns="http://www.w3.org/2000/svg" xmlns:xlink="http://www.w3.org/1999/xlink" x="0px" y="0px"
	 viewBox="0 0 1076.7 595.3" style="enable-background:new 0 0 1076.7 595.3;" xml:space="preserve">
<style type="text/css">
	.st0{fill:url(#XMLID_66_);}
	.st1{fill:url(#XMLID_67_);}
	.st2{fill:url(#XMLID_68_);}
	.st3{fill:url(#XMLID_69_);}
	.st4{fill:url(#XMLID_70_);}
	.st5{fill:#6DC7E1;}
</style>
<linearGradient id="XMLID_66_" gradientUnits="userSpaceOnUse" x1="265.7304" y1="596.1229" x2="793.4133" y2="18.1845">
	<stop  offset="0" style="stop-color:#009ECC"/>
	<stop  offset="1" style="stop-color:#7ECDEA"/>
</linearGradient>
<rect id="XMLID_35_" class="st0" width="1076.5" height="595.3"/>
<g id="XMLID_14_">
	<g id="XMLID_19_">
		<linearGradient id="XMLID_67_" gradientUnits="userSpaceOnUse" x1="39.0481" y1="308.5378" x2="472.8292" y2="373.9319">
			<stop  offset="0" style="stop-color:#009ECC"/>
			<stop  offset="1" style="stop-color:#7ECDEA"/>
		</linearGradient>
		<path id="XMLID_30_" class="st1" d="M323.3,349.3l-1.6,1.6c-4.9,4.9-9.9,9.9-14.8,14.8l-117,117c-11.8,11.8-30.4,11-42.4,0
			c-11.9-10.9-11.1-31.3,0-42.4l102-102c5.6-5.6,5.6-14.8,0-20.4l-102-102c-11.8-11.8-11-30.4,0-42.4c10.9-11.9,31.3-11.1,42.4,0
			c5.5,5.5,10.9,10.9,16.4,16.4l71.8,71.8c15,15,30.1,30.1,45.1,45.1C335.1,318.8,334.3,337.3,323.3,349.3z"/>
		<linearGradient id="XMLID_68_" gradientUnits="userSpaceOnUse" x1="39.2224" y1="307.3818" x2="473.0035" y2="372.7759">
			<stop  offset="0" style="stop-color:#009ECC"/>
			<stop  offset="1" style="stop-color:#7ECDEA"/>
		</linearGradient>
		<path id="XMLID_27_" class="st2" d="M323.3,349.3c-0.5,0.5-1,1.1-1.6,1.6L323.3,349.3z"/>
	</g>
	<g id="XMLID_17_">
		<linearGradient id="XMLID_69_" gradientUnits="userSpaceOnUse" x1="60.6873" y1="164.998" x2="494.4684" y2="230.3922">
			<stop  offset="0" style="stop-color:#009ECC"/>
			<stop  offset="1" style="stop-color:#7ECDEA"/>
		</linearGradient>
		<path id="XMLID_18_" class="st3" d="M208.5,155c15,15,30.1,30.1,45.1,45.1c23.9,23.9,47.9,47.9,71.8,71.8
			c5.5,5.5,10.9,10.9,16.4,16.4c11.1,11.1,31.4,11.9,42.4,0c11-12,11.8-30.5,0-42.4c-15-15-30.1-30.1-45.1-45.1
			c-23.9-23.9-47.9-47.9-71.8-71.8c-5.5-5.5-10.9-10.9-16.4-16.4c-11.1-11.1-31.4-11.9-42.4,0C197.5,124.6,196.7,143.2,208.5,155
			L208.5,155z"/>
	</g>
</g>
<linearGradient id="XMLID_70_" gradientUnits="userSpaceOnUse" x1="476.6587" y1="488.5863" x2="1138.1162" y2="106.6937">
	<stop  offset="0" style="stop-color:#009BA7"/>
	<stop  offset="1" style="stop-color:#00728C"/>
</linearGradient>
<rect id="XMLID_15_" x="538.3" class="st4" width="538.3" height="595.3"/>
<g id="XMLID_113_">
	<path id="XMLID_114_" class="st5" d="M626.3,175.4v10.8h21.3v14.9h-21.3v24.8h-17.6v-67.2h43.4v16.7H626.3z"/>
	<path id="XMLID_116_" class="st5" d="M659.7,158.9h17.8v66.9h-17.8V158.9z"/>
	<path id="XMLID_118_" class="st5" d="M724.8,225.8l-17.9-29.1v29.1h-17.8l-0.1-66.9h25.4c14.4,0,24.8,9.8,24.8,21.7
		c0,8.3-5,15.3-11.6,18.3l17.9,26.9H724.8z M706.8,188.3l7.3,0c3.8,0,7.2-2.6,7.2-6.7c0-4.2-3.5-6.7-7.2-6.7h-7.3V188.3z"/>
	<path id="XMLID_121_" class="st5" d="M748.5,214.5l10.8-10.5c2.8,4.1,8,6.6,13.6,6.6c3.8,0,7.5-1.4,7.5-4.1c0-3.4-6.8-6.5-13.4-9.4
		c-8.5-3.7-15.7-9.2-15.7-19.3c0-11.6,11-19.8,23.7-19.8c10.2,0,18.2,4.8,20.8,11.4l-10.3,9.9c-2-3.5-7.1-5.1-10.3-5.1
		c-3.7,0-6.3,1.9-6.3,4.2c0,3.1,4.7,4.1,12,7.1c10.5,4.4,17.4,10.8,17.4,20.7c0,12.7-11.9,20.7-25.3,20.7
		C761.8,226.7,751.8,221.9,748.5,214.5z"/>
	<path id="XMLID_123_" class="st5" d="M852.1,175.5h-16v50.3h-17.8v-50.3h-16.1v-16.6h49.9V175.5z"/>
	<path id="XMLID_125_" class="st5" d="M673.4,260.9l-30.8,67.6h-8.1l-30.7-67.6H623l15.4,36.2l15.5-36.2H673.4z"/>
	<path id="XMLID_127_" class="st5" d="M697.6,277.4v9.3h21.3v14.8h-21.3v9.6h25.8v16.6h-43.4v-66.9h43.4v16.5H697.6z"/>
	<path id="XMLID_129_" class="st5" d="M769.1,327.8l-17.9-29.1v29.1h-17.8l-0.1-66.9h25.4c14.4,0,24.8,9.8,24.8,21.7
		c0,8.3-5,15.3-11.6,18.3l17.9,26.9H769.1z M751.1,290.3l7.3,0c3.8,0,7.2-2.6,7.2-6.7c0-4.2-3.5-6.7-7.2-6.7h-7.3V290.3z"/>
	<path id="XMLID_132_" class="st5" d="M792.8,316.5l10.8-10.5c2.8,4.1,8,6.6,13.6,6.6c3.8,0,7.5-1.4,7.5-4.1c0-3.4-6.8-6.5-13.4-9.4
		c-8.5-3.7-15.7-9.2-15.7-19.3c0-11.6,11-19.8,23.7-19.8c10.2,0,18.2,4.8,20.8,11.4l-10.3,9.9c-2-3.5-7.1-5.1-10.3-5.1
		c-3.7,0-6.3,1.9-6.3,4.2c0,3.1,4.7,4.1,12,7.1c10.5,4.4,17.4,10.8,17.4,20.7c0,12.7-11.9,20.7-25.3,20.7
		C806.1,328.7,796.1,323.9,792.8,316.5z"/>
	<path id="XMLID_134_" class="st5" d="M850.5,260.9h17.8v66.9h-17.8V260.9z"/>
	<path id="XMLID_136_" class="st5" d="M877,294.4c0-20.1,15.9-35.3,36.7-35.3c20.8,0,36.7,15.2,36.7,35.3
		c0,19.9-15.9,35.1-36.8,35.1C892.9,329.5,877,314.4,877,294.4z M932.5,294.3c0-10.3-8.1-18.3-18.8-18.3s-18.8,8-18.8,18.3
		c0,10.3,8.1,18.2,18.8,18.2S932.5,304.6,932.5,294.3z"/>
	<path id="XMLID_139_" class="st5" d="M1017,260.8v67.7h-5.6L977,295.1v32.7h-17.8v-67.6h5.7l34.3,33.2v-32.6H1017z"/>
	<path id="XMLID_141_" class="st5" d="M673.4,362.9l-30.8,67.6h-8.1l-30.7-67.6H623l15.4,36.2l15.5-36.2H673.4z"/>
	<path id="XMLID_143_" class="st5" d="M701.5,362.5v67.3h-17.8v-46.4l-6.5,1.6v-17.5l19.1-5H701.5z"/>
	<path id="XMLID_145_" class="st5" d="M711.6,421.8c0-5.6,5-10.3,11-10.3c5.9,0,11,4.7,11,10.3c0,5.6-5,10.3-11,10.3
		C716.6,432.2,711.6,427.6,711.6,421.8z"/>
	<path id="XMLID_147_" class="st5" d="M740.8,396.3c0-21,11.6-34.9,29.7-34.9c18,0,29.4,13.8,29.4,34.8c0,21-11.5,34.9-29.4,34.9
		C752.4,431.2,740.8,417.4,740.8,396.3z M782.2,396.4c0-10.8-4.5-18.1-11.8-18.1s-11.8,7.2-11.8,18c0,10.7,4.6,17.9,11.9,17.9
		C777.7,414.2,782.2,407.1,782.2,396.4z"/>
	<path id="XMLID_150_" class="st5" d="M807.3,421.8c0-5.6,5-10.3,11-10.3c5.9,0,11,4.7,11,10.3c0,5.6-5,10.3-11,10.3
		C812.2,432.2,807.3,427.6,807.3,421.8z"/>
	<path id="XMLID_152_" class="st5" d="M836.5,396.3c0-21,11.6-34.9,29.7-34.9c18,0,29.4,13.8,29.4,34.8c0,21-11.5,34.9-29.4,34.9
		C848.1,431.2,836.5,417.4,836.5,396.3z M877.8,396.4c0-10.8-4.5-18.1-11.8-18.1s-11.8,7.2-11.8,18c0,10.7,4.6,17.9,11.9,17.9
		C873.3,414.2,877.8,407.1,877.8,396.4z"/>
</g>
<g id="XMLID_71_">
	<path id="XMLID_72_" class="st5" d="M626.3,175.4v10.8h21.3v14.9h-21.3v24.8h-17.6v-67.2h43.4v16.7H626.3z"/>
	<path id="XMLID_74_" class="st5" d="M659.7,158.9h17.8v66.9h-17.8V158.9z"/>
	<path id="XMLID_76_" class="st5" d="M724.8,225.8l-17.9-29.1v29.1h-17.8l-0.1-66.9h25.4c14.4,0,24.8,9.8,24.8,21.7
		c0,8.3-5,15.3-11.6,18.3l17.9,26.9H724.8z M706.8,188.3l7.3,0c3.8,0,7.2-2.6,7.2-6.7c0-4.2-3.5-6.7-7.2-6.7h-7.3V188.3z"/>
	<path id="XMLID_79_" class="st5" d="M748.5,214.5l10.8-10.5c2.8,4.1,8,6.6,13.6,6.6c3.8,0,7.5-1.4,7.5-4.1c0-3.4-6.8-6.5-13.4-9.4
		c-8.5-3.7-15.7-9.2-15.7-19.3c0-11.6,11-19.8,23.7-19.8c10.2,0,18.2,4.8,20.8,11.4l-10.3,9.9c-2-3.5-7.1-5.1-10.3-5.1
		c-3.7,0-6.3,1.9-6.3,4.2c0,3.1,4.7,4.1,12,7.1c10.5,4.4,17.4,10.8,17.4,20.7c0,12.7-11.9,20.7-25.3,20.7
		C761.8,226.7,751.8,221.9,748.5,214.5z"/>
	<path id="XMLID_81_" class="st5" d="M852.1,175.5h-16v50.3h-17.8v-50.3h-16.1v-16.6h49.9V175.5z"/>
	<path id="XMLID_83_" class="st5" d="M673.4,260.9l-30.8,67.6h-8.1l-30.7-67.6H623l15.4,36.2l15.5-36.2H673.4z"/>
	<path id="XMLID_85_" class="st5" d="M697.6,277.4v9.3h21.3v14.8h-21.3v9.6h25.8v16.6h-43.4v-66.9h43.4v16.5H697.6z"/>
	<path id="XMLID_87_" class="st5" d="M769.1,327.8l-17.9-29.1v29.1h-17.8l-0.1-66.9h25.4c14.4,0,24.8,9.8,24.8,21.7
		c0,8.3-5,15.3-11.6,18.3l17.9,26.9H769.1z M751.1,290.3l7.3,0c3.8,0,7.2-2.6,7.2-6.7c0-4.2-3.5-6.7-7.2-6.7h-7.3V290.3z"/>
	<path id="XMLID_90_" class="st5" d="M792.8,316.5l10.8-10.5c2.8,4.1,8,6.6,13.6,6.6c3.8,0,7.5-1.4,7.5-4.1c0-3.4-6.8-6.5-13.4-9.4
		c-8.5-3.7-15.7-9.2-15.7-19.3c0-11.6,11-19.8,23.7-19.8c10.2,0,18.2,4.8,20.8,11.4l-10.3,9.9c-2-3.5-7.1-5.1-10.3-5.1
		c-3.7,0-6.3,1.9-6.3,4.2c0,3.1,4.7,4.1,12,7.1c10.5,4.4,17.4,10.8,17.4,20.7c0,12.7-11.9,20.7-25.3,20.7
		C806.1,328.7,796.1,323.9,792.8,316.5z"/>
	<path id="XMLID_92_" class="st5" d="M850.5,260.9h17.8v66.9h-17.8V260.9z"/>
	<path id="XMLID_94_" class="st5" d="M877,294.4c0-20.1,15.9-35.3,36.7-35.3c20.8,0,36.7,15.2,36.7,35.3c0,19.9-15.9,35.1-36.8,35.1
		C892.9,329.5,877,314.4,877,294.4z M932.5,294.3c0-10.3-8.1-18.3-18.8-18.3s-18.8,8-18.8,18.3c0,10.3,8.1,18.2,18.8,18.2
		S932.5,304.6,932.5,294.3z"/>
	<path id="XMLID_97_" class="st5" d="M1017,260.8v67.7h-5.6L977,295.1v32.7h-17.8v-67.6h5.7l34.3,33.2v-32.6H1017z"/>
	<path id="XMLID_99_" class="st5" d="M673.4,362.9l-30.8,67.6h-8.1l-30.7-67.6H623l15.4,36.2l15.5-36.2H673.4z"/>
	<path id="XMLID_101_" class="st5" d="M701.5,362.5v67.3h-17.8v-46.4l-6.5,1.6v-17.5l19.1-5H701.5z"/>
	<path id="XMLID_103_" class="st5" d="M711.6,421.8c0-5.6,5-10.3,11-10.3c5.9,0,11,4.7,11,10.3c0,5.6-5,10.3-11,10.3
		C716.6,432.2,711.6,427.6,711.6,421.8z"/>
	<path id="XMLID_105_" class="st5" d="M740.8,396.3c0-21,11.6-34.9,29.7-34.9c18,0,29.4,13.8,29.4,34.8c0,21-11.5,34.9-29.4,34.9
		C752.4,431.2,740.8,417.4,740.8,396.3z M782.2,396.4c0-10.8-4.5-18.1-11.8-18.1s-11.8,7.2-11.8,18c0,10.7,4.6,17.9,11.9,17.9
		C777.7,414.2,782.2,407.1,782.2,396.4z"/>
	<path id="XMLID_108_" class="st5" d="M807.3,421.8c0-5.6,5-10.3,11-10.3c5.9,0,11,4.7,11,10.3c0,5.6-5,10.3-11,10.3
		C812.2,432.2,807.3,427.6,807.3,421.8z"/>
	<path id="XMLID_110_" class="st5" d="M836.5,396.3c0-21,11.6-34.9,29.7-34.9c18,0,29.4,13.8,29.4,34.8c0,21-11.5,34.9-29.4,34.9
		C848.1,431.2,836.5,417.4,836.5,396.3z M877.8,396.4c0-10.8-4.5-18.1-11.8-18.1s-11.8,7.2-11.8,18c0,10.7,4.6,17.9,11.9,17.9
		C873.3,414.2,877.8,407.1,877.8,396.4z"/>
</g>
<g id="XMLID_20_">
	<path id="XMLID_22_" class="st5" d="M626.3,175.4v10.8h21.3v14.9h-21.3v24.8h-17.6v-67.2h43.4v16.7H626.3z"/>
	<path id="XMLID_24_" class="st5" d="M659.7,158.9h17.8v66.9h-17.8V158.9z"/>
	<path id="XMLID_26_" class="st5" d="M724.8,225.8l-17.9-29.1v29.1h-17.8l-0.1-66.9h25.4c14.4,0,24.8,9.8,24.8,21.7
		c0,8.3-5,15.3-11.6,18.3l17.9,26.9H724.8z M706.8,188.3l7.3,0c3.8,0,7.2-2.6,7.2-6.7c0-4.2-3.5-6.7-7.2-6.7h-7.3V188.3z"/>
	<path id="XMLID_31_" class="st5" d="M748.5,214.5l10.8-10.5c2.8,4.1,8,6.6,13.6,6.6c3.8,0,7.5-1.4,7.5-4.1c0-3.4-6.8-6.5-13.4-9.4
		c-8.5-3.7-15.7-9.2-15.7-19.3c0-11.6,11-19.8,23.7-19.8c10.2,0,18.2,4.8,20.8,11.4l-10.3,9.9c-2-3.5-7.1-5.1-10.3-5.1
		c-3.7,0-6.3,1.9-6.3,4.2c0,3.1,4.7,4.1,12,7.1c10.5,4.4,17.4,10.8,17.4,20.7c0,12.7-11.9,20.7-25.3,20.7
		C761.8,226.7,751.8,221.9,748.5,214.5z"/>
	<path id="XMLID_33_" class="st5" d="M852.1,175.5h-16v50.3h-17.8v-50.3h-16.1v-16.6h49.9V175.5z"/>
	<path id="XMLID_36_" class="st5" d="M673.4,260.9l-30.8,67.6h-8.1l-30.7-67.6H623l15.4,36.2l15.5-36.2H673.4z"/>
	<path id="XMLID_38_" class="st5" d="M697.6,277.4v9.3h21.3v14.8h-21.3v9.6h25.8v16.6h-43.4v-66.9h43.4v16.5H697.6z"/>
	<path id="XMLID_40_" class="st5" d="M769.1,327.8l-17.9-29.1v29.1h-17.8l-0.1-66.9h25.4c14.4,0,24.8,9.8,24.8,21.7
		c0,8.3-5,15.3-11.6,18.3l17.9,26.9H769.1z M751.1,290.3l7.3,0c3.8,0,7.2-2.6,7.2-6.7c0-4.2-3.5-6.7-7.2-6.7h-7.3V290.3z"/>
	<path id="XMLID_43_" class="st5" d="M792.8,316.5l10.8-10.5c2.8,4.1,8,6.6,13.6,6.6c3.8,0,7.5-1.4,7.5-4.1c0-3.4-6.8-6.5-13.4-9.4
		c-8.5-3.7-15.7-9.2-15.7-19.3c0-11.6,11-19.8,23.7-19.8c10.2,0,18.2,4.8,20.8,11.4l-10.3,9.9c-2-3.5-7.1-5.1-10.3-5.1
		c-3.7,0-6.3,1.9-6.3,4.2c0,3.1,4.7,4.1,12,7.1c10.5,4.4,17.4,10.8,17.4,20.7c0,12.7-11.9,20.7-25.3,20.7
		C806.1,328.7,796.1,323.9,792.8,316.5z"/>
	<path id="XMLID_45_" class="st5" d="M850.5,260.9h17.8v66.9h-17.8V260.9z"/>
	<path id="XMLID_47_" class="st5" d="M877,294.4c0-20.1,15.9-35.3,36.7-35.3c20.8,0,36.7,15.2,36.7,35.3c0,19.9-15.9,35.1-36.8,35.1
		C892.9,329.5,877,314.4,877,294.4z M932.5,294.3c0-10.3-8.1-18.3-18.8-18.3s-18.8,8-18.8,18.3c0,10.3,8.1,18.2,18.8,18.2
		S932.5,304.6,932.5,294.3z"/>
	<path id="XMLID_50_" class="st5" d="M1017,260.8v67.7h-5.6L977,295.1v32.7h-17.8v-67.6h5.7l34.3,33.2v-32.6H1017z"/>
	<path id="XMLID_52_" class="st5" d="M673.4,362.9l-30.8,67.6h-8.1l-30.7-67.6H623l15.4,36.2l15.5-36.2H673.4z"/>
	<path id="XMLID_54_" class="st5" d="M701.5,362.5v67.3h-17.8v-46.4l-6.5,1.6v-17.5l19.1-5H701.5z"/>
	<path id="XMLID_56_" class="st5" d="M711.6,421.8c0-5.6,5-10.3,11-10.3c5.9,0,11,4.7,11,10.3c0,5.6-5,10.3-11,10.3
		C716.6,432.2,711.6,427.6,711.6,421.8z"/>
	<path id="XMLID_58_" class="st5" d="M740.8,396.3c0-21,11.6-34.9,29.7-34.9c18,0,29.4,13.8,29.4,34.8c0,21-11.5,34.9-29.4,34.9
		C752.4,431.2,740.8,417.4,740.8,396.3z M782.2,396.4c0-10.8-4.5-18.1-11.8-18.1s-11.8,7.2-11.8,18c0,10.7,4.6,17.9,11.9,17.9
		C777.7,414.2,782.2,407.1,782.2,396.4z"/>
	<path id="XMLID_61_" class="st5" d="M807.3,421.8c0-5.6,5-10.3,11-10.3c5.9,0,11,4.7,11,10.3c0,5.6-5,10.3-11,10.3
		C812.2,432.2,807.3,427.6,807.3,421.8z"/>
	<path id="XMLID_63_" class="st5" d="M836.5,396.3c0-21,11.6-34.9,29.7-34.9c18,0,29.4,13.8,29.4,34.8c0,21-11.5,34.9-29.4,34.9
		C848.1,431.2,836.5,417.4,836.5,396.3z M877.8,396.4c0-10.8-4.5-18.1-11.8-18.1s-11.8,7.2-11.8,18c0,10.7,4.6,17.9,11.9,17.9
		C873.3,414.2,877.8,407.1,877.8,396.4z"/>
</g>
</svg>
