?xml version="1.0" encoding="utf-8"?>
<svg version="1.1" baseProfile="tiny" id="Layer_1" xmlns="http://www.w3.org/2000/svg" xmlns:xlink="http://www.w3.org/1999/xlink"
	 x="0px" y="0px" viewBox="0 0 792 792" xml:space="preserve">
<g id="XMLID_2_">
	<g id="XMLID_4_">
		<path id="XMLID_8_" fill="#1FC5ED" d="M257.8,271.4c20.1,20.1,40.2,40.2,60.3,60.3c32,32,64,64,96,96c7.3,7.3,14.6,14.6,21.9,21.9
			c14.8,14.8,42,15.9,56.6,0c14.7-16,15.8-40.8,0-56.6c-20.1-20.1-40.2-40.2-60.3-60.3c-32-32-64-64-96-96
			c-7.3-7.3-14.6-14.6-21.9-21.9c-14.8-14.8-42-15.9-56.6,0C243.1,230.8,242,255.6,257.8,271.4L257.8,271.4z"/>
	</g>
	<g id="XMLID_5_">
		<path id="XMLID_7_" fill="#1FC5ED" d="M339.2,190c20.1,20.1,40.2,40.2,60.3,60.3c32,32,64,64,96,96c7.3,7.3,14.6,14.6,21.9,21.9
			c14.8,14.8,42,15.9,56.6,0c14.7-16,15.8-40.8,0-56.6c-20.1-20.1-40.2-40.2-60.3-60.3c-32-32-64-64-96-96
			c-7.3-7.3-14.6-14.6-21.9-21.9c-14.8-14.8-42-15.9-56.6,0C324.5,149.4,323.4,174.2,339.2,190L339.2,190z"/>
	</g>
	<g id="XMLID_3_">
		<path id="XMLID_6_" fill="#1FC5ED" d="M314.4,627.8c20.1-20.1,40.2-40.2,60.3-60.3c32-32,64-64,96-96c7.3-7.3,14.6-14.6,21.9-21.9
			c14.8-14.8,15.9-42,0-56.6c-16-14.7-40.8-15.8-56.6,0c-20.1,20.1-40.2,40.2-60.3,60.3c-32,32-64,64-96,96
			c-7.3,7.3-14.6,14.6-21.9,21.9c-14.8,14.8-15.9,42,0,56.6C273.8,642.5,298.6,643.6,314.4,627.8L314.4,627.8z"/>
	</g>
</g>
</svg>

